<svg xmlns="http://www.w3.org/2000/svg" viewBox="0 0 1010.51 652.87"><defs><style>.cls-1{fill:#523f41;}.cls-1,.cls-2{stroke:#000;stroke-miterlimit:10;stroke-width:5px;}.cls-2{fill:#996c55;}</style></defs><g id="Layer_4" data-name="Layer 4"><path class="cls-1" d="M318.3,684.13c-5.09,6.07-7.45,38.22-12.16,102.53-3.53,48.06-3.65,66.92,6.18,89,3.08,6.9,12.69,27.8,34.32,43.67,17.95,13.16,36.6,17.33,79.32,20.58,51.12,3.91,93.35,3.21,136.19,1.8,47.52-1.56,82.84-3.86,91.34-4.32,79.89-4.36,155.67-6.14,276.65-14.71,69.61-4.93,99.27-8.22,113.81-31.18,6.74-10.62,4.38-37.34-1.35-90.26-10.84-100.32-16.29-85.8-17.37-129.67-.55-22.18.74-30.12-5.53-34.95-19.5-15-64.44,36.71-137.36,61-33.34,11.1-72,10.25-147.85,8.11-102.72-2.89-188.31-13.4-209.07-16C388.46,672.48,342.06,655.8,318.3,684.13Z" transform="translate(-40.04 -299.69)"/><path class="cls-2" d="M669.73,590.86c-54-.31-69.42-1-97.28,2.18-28.31,3.17-48.51,7.88-116.5,26.5-131.74,36.09-134.57,40-134.51,42.86.34,17.08,101.55,27.07,257,42.42,142.88,14.11,190,13.29,239.93,6,59.45-8.71,95.32-24.69,167.06-56.66,26.22-11.68,36-17.49,35.61-24.12-1.36-23.95-134.11-36.81-208.27-39.6C774,589,784.47,591.52,669.73,590.86Z" transform="translate(-40.04 -299.69)"/></g><g id="Layer_2" data-name="Layer 2"><path class="cls-1" d="M54,783c-.23,7.91,17.84,34.61,54,88,27,39.9,38.61,54.78,60,66,6.69,3.51,27.18,14,54,13,22.24-.79,39.46-9.08,75-33,42.54-28.62,75.25-55.34,108-83,36.33-30.68,62.62-54.37,69-60,60-52.93,118.36-101.29,208-183,51.58-47,72.81-68,70-95-1.3-12.51-19.71-32-57-70-70.69-72-66-57.24-94-91-14.18-17.07-18.09-24.1-26-24-24.6.31-27.83,68.75-70,133-19.28,29.37-50.12,52.65-111,98-82.41,61.38-156.1,106.18-174,117C101.85,730.37,55.09,746,54,783Z" transform="translate(-40.04 -299.69)"/></g><g id="Layer_3" data-name="Layer 3"><path class="cls-2" d="M272,492c-42.6,33.25-55.07,42.28-75,62-20.25,20-33.18,36.25-75,93C41,757,41.16,761.76,43,764c10.85,13.19,96.47-41.69,228-126,120.87-77.48,157.38-107.35,192-144,41.26-43.67,59.51-78.45,96-148,13.33-25.41,17.4-36,13-41-15.92-17.95-128.06,54.23-188,98C352.63,425.91,362.45,421.41,272,492Z" transform="translate(-40.04 -299.69)"/></g></svg>
