<svg xmlns="http://www.w3.org/2000/svg" viewBox="0 0 967.63 955.55"><defs><style>.cls-1{fill:#c98a3b;}.cls-2{fill:#a26958;}</style></defs><g id="Layer_3" data-name="Layer 3"><path class="cls-1" d="M408,242c-28.87,8.83-81.15,25.39-134,70-16,13.53-55.95,47.9-84,105-19.16,39-13.5,49.36-39,109-24.56,57.44-32.46,54-44,88-23.07,67.94-8.24,131,0,166,5.31,22.55,19.18,79.34,62,135,30.56,39.73,39.77,32,78,81,35.18,45.1,38.41,65.8,71,92,9.45,7.59,19.08,13.82,74,37,143.3,60.49,167.6,56,179,53,35.94-9.6,30.65-28.56,75-40,39-10,55.06,1.48,102-7,34.92-6.31,59.64-18.76,74-26,24.32-12.25,54.11-31.66,114-99,55.9-62.85,83.86-94.28,99-128,31.22-69.53,28.23-132.23,26-179-3.76-78.9-6-126.75-41-156-22.22-18.59-52.47-25.34-77-63-11-16.94-15-31-16-35-8.6-32.89,3.09-51.37,2-70-2.45-42-68.88-70.3-131-96-46.33-19.17-115-46.9-213-53C538.59,223.11,479.94,220,408,242Z" transform="translate(-94.66 -223.97)"/></g><g id="Layer_1" data-name="Layer 1"><circle class="cls-2" cx="394.34" cy="291.03" r="30"/><circle class="cls-2" cx="643.84" cy="751.53" r="28.5"/><circle class="cls-2" cx="535.84" cy="637.53" r="38.5"/><circle class="cls-2" cx="712.84" cy="381.53" r="46.5"/><circle class="cls-2" cx="792.84" cy="567.53" r="38.5"/><circle class="cls-2" cx="413.34" cy="801.03" r="50"/><circle class="cls-2" cx="325.84" cy="499.53" r="38.5"/><circle class="cls-2" cx="704.84" cy="205.53" r="38.5"/><circle class="cls-2" cx="493.34" cy="153.03" r="41"/><circle class="cls-2" cx="264.84" cy="161.53" r="49.5"/><circle class="cls-2" cx="496.84" cy="431.75" r="29.86"/><circle class="cls-2" cx="115.84" cy="544.53" r="32.5"/><circle class="cls-2" cx="215.84" cy="682.53" r="38.5"/><circle class="cls-2" cx="109.84" cy="350.53" r="38.5"/></g></svg>
