<svg xmlns="http://www.w3.org/2000/svg" viewBox="0 0 813.45 400.73"><defs><style>.cls-1{fill:#feb45b;}.cls-2{fill:#d77d31;}.cls-3{fill:#b96024;}</style></defs><g id="Layer_4" data-name="Layer 4"><path class="cls-1" d="M322,527c-10.15-1.07-12.44,22.62-38,44-19.6,16.39-26.77,9.59-58,28-33.13,19.53-49.23,41.45-55,50-9.76,14.48-17.59,26.09-16,41,2.07,19.39,18.71,31.7,34,43a168.66,168.66,0,0,0,69,30c56.8,9.94,124.48-7.4,127-30,1.17-10.46-12.79-11.46-26-32-18.81-29.24-5.52-50.54-15-113C341,568,335,528.37,322,527Z" transform="translate(-154.79 -422.53)"/></g><g id="Layer_6" data-name="Layer 6"><path class="cls-1" d="M732,769c5,11.43,23.35,16,60,25,23.22,5.73,34.84,8.6,48,8,26.06-1.19,27.47-11,59-17,34.43-6.54,48.12,2.24,60-10,10.4-10.72,9.45-27.29,9-35-.76-13.25-5.4-24.29-30-59-12.55-17.7-20.61-27.9-42-55-33.87-42.91-38.25-48.49-47-49-17.45-1-31.37,19.32-51,48-21.37,31.23-17.25,37.22-45,90C735,749.15,727.25,758.18,732,769Z" transform="translate(-154.79 -422.53)"/></g><g id="Layer_3" data-name="Layer 3"><path class="cls-2" d="M411,471c-32.86,5.38-47.73,6.61-65,19-6.6,4.73-19.72,14.15-27,30-11.51,25.06,2.42,42.61,14,94,14.21,63.06,1.18,75.86,21,109,4.61,7.71,18.51,30.31,46,45,44.26,23.65,106.78,17.72,118-7,8-17.59-15-33.72-15-83,0-6,.25-16.25,1.15-27.13,2.25-27,7-40.6,7.85-89.87,1-59.4,1.12-89.34-17-101C485.46,453.86,481.73,459.43,411,471Z" transform="translate(-154.79 -422.53)"/></g><g id="Layer_5" data-name="Layer 5"><path class="cls-2" d="M727,476c-15.86,6.61-24.57,23.4-42,57-5,9.54-19.68,39-33,90a447.75,447.75,0,0,0-15,122c.61,32.51,4.54,41.67,11,48,18.91,18.52,60.5,13.82,85-6,14-11.32,20.86-31.7,34-72,20-61.35,15.41-72,31-86,23.6-21.18,51.67-12.5,61-33,6.12-13.45-.72-28.67-6-40C830.5,507.72,768.92,458.54,727,476Z" transform="translate(-154.79 -422.53)"/></g><g id="Layer_2" data-name="Layer 2"><path class="cls-3" d="M598,423c-38.3.76-55.24,5.64-68,11-16.49,6.93-33.67,14.15-42,30-12.84,24.42,8.36,44.51,17,91,7.32,39.39-5.9,35.7-7,121-.51,39.23,1.89,71.46,17,105,10.74,23.83,20.75,32.46,30,37,18.53,9.09,39.31,4.35,54,1,14.51-3.31,24.38-5.56,33-13,16.32-14.09,14.64-35.12,18-76a876.71,876.71,0,0,1,13-90c9-44.47,13.45-66.71,27-88,21.92-34.43,45.21-39.44,46-64,.76-23.68-20.17-41.82-25-46C687.05,421.24,657.36,421.83,598,423Z" transform="translate(-154.79 -422.53)"/></g></svg>
