<svg xmlns="http://www.w3.org/2000/svg" viewBox="0 0 816.62 798.07"><defs><style>.cls-1{fill:#ffffef;}.cls-1,.cls-2,.cls-4{stroke:#231f20;stroke-linecap:round;}.cls-1,.cls-2,.cls-4,.cls-5,.cls-7{stroke-miterlimit:10;}.cls-1,.cls-4,.cls-5{stroke-width:4px;}.cls-2{fill:#e6e7e8;}.cls-3{font-size:123px;}.cls-3,.cls-6{font-family:MonotypeCorsiva, Monotype Corsiva;}.cls-4,.cls-7{fill:none;}.cls-5{fill:#603813;}.cls-5,.cls-7{stroke:#000;}.cls-6{font-size:144px;fill:#fff;}.cls-7{stroke-width:5px;}</style></defs><g id="Layer_4" data-name="Layer 4"><path class="cls-1" d="M778,557.7q9,86.12,16,169.91l-8.47,5.31a1298.93,1298.93,0,0,1-338,36.13A1295.06,1295.06,0,0,1,195,737.8c-1.62-65.18-.35-134.58,5-207.67q3.21-43.83,8-85.45a1079.8,1079.8,0,0,0,287,34.56A1078,1078,0,0,0,765,441Q771.84,498.72,778,557.7Z" transform="translate(-186.65 -205.43)"/><path class="cls-2" d="M223.63,393.5" transform="translate(-186.65 -205.43)"/><text class="cls-3" transform="translate(118.46 373.19)">Steamet <tspan x="60.24" y="120">mælk</tspan></text><path class="cls-4" d="M785,419" transform="translate(-186.65 -205.43)"/><path class="cls-4" d="M192,419" transform="translate(-186.65 -205.43)"/></g><g id="Layer_3" data-name="Layer 3"><path class="cls-5" d="M794,724a234.71,234.71,0,0,1,2,76s-3.66,26.49-12.5,49.5c-26.66,69.38-111.48,108-133,118-82.81,38.58-162.43,32.74-195,32-49.88-1.13-93.06-11.17-149-32-18.75-7-78.91-40-100-112-2.46-8.4-4.5-16.44-6.18-24.68-.78-3.78-2-10.18-3.22-18.09-1.75-11.8-2.47-21.29-3.1-31.73-.77-12.67-1.59-29.9-2-51a1077.09,1077.09,0,0,0,286,40A1078,1078,0,0,0,794,724Z" transform="translate(-186.65 -205.43)"/><text class="cls-6" transform="translate(78.4 681.64)">Espresso</text><path class="cls-5" d="M482,737" transform="translate(-186.65 -205.43)"/></g><g id="Layer_1" data-name="Layer 1"><path d="M750.05,276a18.78,18.78,0,0,1-2.31,8.72,31.7,31.7,0,0,1-5.46,7.13,68.19,68.19,0,0,1-14.35,10.54c-10.32,5.9-21.39,10.27-32.56,14.19A492.31,492.31,0,0,1,626.5,334c-46.65,8.59-94.17,11.71-141.5,11q-35.5-.57-70.88-3.88c-11.78-1.11-23.54-2.33-35.26-3.84s-23.44-3.11-35.1-5c-23.32-3.81-46.56-8.4-69.27-15.32-5.67-1.74-11.3-3.65-16.85-5.82a145.13,145.13,0,0,1-16.35-7.41,81.6,81.6,0,0,1-7.78-4.7,56.36,56.36,0,0,1-7.24-5.77,32.94,32.94,0,0,1-6-7.52,20.92,20.92,0,0,1-2.78-9.79,21.3,21.3,0,0,1,2.45-10,34.15,34.15,0,0,1,5.81-7.87A70.17,70.17,0,0,1,240.6,247c10.55-6.16,21.78-10.6,33.12-14.42s22.9-6.84,34.5-9.52,23.3-4.84,35-6.76c23.45-3.82,47.05-6.43,70.7-8.18s47.36-2.52,71.06-2.47,47.4,1,71,2.89c5.91.47,11.81,1,17.71,1.64s11.78,1.35,17.66,2.12c11.76,1.48,23.47,3.39,35.13,5.53a497.48,497.48,0,0,1,68.87,17.53c11.17,3.92,22.25,8.3,32.56,14.21a68,68,0,0,1,14.34,10.58,31.21,31.21,0,0,1,5.45,7.14A18.69,18.69,0,0,1,750.05,276Zm-1.1,0a17.59,17.59,0,0,0-2.23-8.18,29.73,29.73,0,0,0-5.3-6.81,64.26,64.26,0,0,0-14.24-10,133.65,133.65,0,0,0-16-7.23c-5.47-2.11-11.06-3.9-16.69-5.53s-11.32-3.1-17-4.41-11.48-2.47-17.24-3.53c-11.54-2.14-23.16-3.81-34.8-5.23s-23.33-2.54-35-3.54q-8.76-.74-17.54-1.28c-5.85-.42-11.7-.74-17.55-1.06q-35.13-1.93-70.32-1.78c-46.88.24-93.84,2.55-140.18,9.19q-17.37,2.5-34.54,6c-11.43,2.34-22.76,5.12-33.89,8.42-5.55,1.66-11.06,3.48-16.44,5.55a140.76,140.76,0,0,0-15.69,7A62.77,62.77,0,0,0,230.52,263a27.18,27.18,0,0,0-4.94,6.09,13.89,13.89,0,0,0-.32,14.06,27.75,27.75,0,0,0,4.75,6.43,62,62,0,0,0,13.56,10.16,137.76,137.76,0,0,0,15.61,7.68c5.38,2.24,10.88,4.23,16.44,6.06a343.8,343.8,0,0,0,34,9.11c11.47,2.54,23.06,4.57,34.69,6.27,5.81.87,11.65,1.56,17.49,2.25s11.69,1.3,17.55,1.79c11.71,1,23.44,1.79,35.19,2.27s23.49.79,35.24.89,23.49.05,35.23-.11q35.22-.53,70.35-2.62c23.41-1.44,46.8-3.29,70.09-6.18,11.64-1.45,23.26-3.13,34.8-5.28q8.65-1.59,17.24-3.53t17-4.42c5.63-1.63,11.22-3.43,16.69-5.54a134.65,134.65,0,0,0,16-7.25A64.66,64.66,0,0,0,741.45,291a29.53,29.53,0,0,0,5.29-6.82A17.64,17.64,0,0,0,749,276Z" transform="translate(-186.65 -205.43)"/><path d="M750.15,277.42q8.72,57.3,16,114.82L769.72,421l3.44,28.78c2.25,19.19,4.47,38.39,6.5,57.61s4.08,38.44,6,57.66l5.77,57.63q3,28.82,5.72,57.67c.92,9.62,1.82,19.25,2.63,28.9s1.61,19.31,2.27,29,1.17,19.4,1.47,29.18.37,19.59-.15,29.5a187.84,187.84,0,0,1-3.66,29.82c-.56,2.47-1.11,5-1.82,7.4s-1.45,4.88-2.23,7.31a133.41,133.41,0,0,1-5.73,14.13l-.8,1.72-.86,1.69-1.73,3.36c-1.23,2.19-2.39,4.43-3.7,6.55s-2.53,4.3-3.91,6.38l-2,3.14c-.68,1.05-1.41,2.06-2.11,3.09a214.86,214.86,0,0,1-18.63,23.34A244.45,244.45,0,0,1,710.75,943a311.16,311.16,0,0,1-52.22,27.38,398.28,398.28,0,0,1-55.76,18.24c-37.88,9.49-76.88,14-115.67,14.68-38.81.92-77.87-1.84-115.8-10.45a312.08,312.08,0,0,1-55.4-18,240.17,240.17,0,0,1-50.34-29.4,207.76,207.76,0,0,1-21.93-19.37c-3.44-3.47-6.75-7.07-9.9-10.86s-6.11-7.71-8.86-11.79c-11-16.37-18.57-34.81-23.85-53.65s-8.42-38.24-10.58-57.6c-1-9.69-1.79-19.39-2.37-29.1s-1-19.42-1.17-29.12c-.85-38.82.56-77.54,2.53-116.16,1-19.31,2.14-38.61,3.34-57.89l3.89-57.83,1-14.46,1.11-14.45,2.32-28.9c1.55-19.27,3.36-38.51,5.24-57.75,3.79-38.47,8.13-76.88,13.51-115.16l1.3.14q-4.36,57.8-8.05,115.57c-1.23,19.26-2.31,38.53-3.45,57.8s-2.05,38.54-3.07,57.81L203.7,560.6q-1.47,28.9-2.76,57.81-.65,14.46-1.17,28.9t-1,28.88c-.59,19.25-1,38.49-.92,57.7s.48,38.41,2,57.5,3.85,38.08,8.34,56.58a204.32,204.32,0,0,0,8.52,27.17,157.62,157.62,0,0,0,12.79,25.35,134,134,0,0,0,8.21,11.59c2.94,3.7,6.09,7.29,9.37,10.76a196.19,196.19,0,0,0,21.11,19.32,222.08,222.08,0,0,0,49.3,29.15,292.05,292.05,0,0,0,54.77,17.33,381.43,381.43,0,0,0,57,7.66,495.83,495.83,0,0,0,57.57.05c4.79-.25,9.58-.57,14.4-.9s9.56-.71,14.33-1.18q14.29-1.39,28.49-3.62t28.23-5.23q14-3,27.85-6.77a417.46,417.46,0,0,0,53.93-18.79c8.71-3.79,17.28-7.89,25.62-12.37s16.45-9.37,24.27-14.65a232.13,232.13,0,0,0,42.62-36.72A202.63,202.63,0,0,0,763.84,874c.65-1,1.32-1.93,1.95-2.91l1.87-3c1.27-2,2.42-4,3.6-6s2.24-4.07,3.37-6.1l1.54-3.09.77-1.55.71-1.56a122.68,122.68,0,0,0,5-12.75,129.55,129.55,0,0,0,3.51-13.24,175,175,0,0,0,3.27-27.63c.83-18.79-.07-38-1.27-57.1s-2.84-38.38-4.41-57.6l-4.91-57.71-4.78-57.76-4.65-57.72-4.88-57.7L759.47,393,748.85,277.58Z" transform="translate(-186.65 -205.43)"/><path d="M759.49,359.75a310.67,310.67,0,0,1,43.8-1.8,326.93,326.93,0,0,1,43.87,4.19,287.8,287.8,0,0,1,43.05,10.42A216.34,216.34,0,0,1,931,390.37a180.93,180.93,0,0,1,18.65,12.37l2.24,1.68c.74.56,1.45,1.18,2.18,1.76l4.32,3.55,4.16,3.75c.69.64,1.4,1.24,2.06,1.89l2,2c1.3,1.34,2.67,2.59,3.92,4l3.77,4.12c1.25,1.38,2.39,2.86,3.59,4.28.59.73,1.19,1.43,1.77,2.16l1.65,2.26L983,436.4l.84,1.12.77,1.17,3.06,4.65,2.81,4.82.7,1.21.62,1.25,1.26,2.49a103.08,103.08,0,0,1,7.68,20.9,101.26,101.26,0,0,1,2.56,22.13A143,143,0,0,1,996.19,540a208.91,208.91,0,0,1-7.85,20.83c-1.48,3.41-3.06,6.76-4.7,10.1l-2.56,4.93-2.65,4.89a294.92,294.92,0,0,1-24.71,36.84c-4.57,5.85-9.19,11.52-14.15,17.13s-10.16,10.92-15.52,16.08a287.77,287.77,0,0,1-34.51,28.13c-12.12,8.47-24.73,16.09-37.28,23.38-6.27,3.67-12.54,7.23-18.61,10.93a143.17,143.17,0,0,0-17.16,11.71c-5.1,4.28-9.47,9-10.83,14.41a16,16,0,0,0-.5,4.17c0,.71.1,1.43.13,2.16l.19,1.08a6.94,6.94,0,0,0,.23,1.08,24.91,24.91,0,0,0,3.93,8.43,46.84,46.84,0,0,0,6.68,7.58c.6.61,1.27,1.18,1.93,1.74l2,1.71c1.41,1.05,2.77,2.18,4.23,3.19a175,175,0,0,0,18.33,11.33l-.6,1.38a135.17,135.17,0,0,1-20.35-8.5c-1.65-.85-3.24-1.84-4.87-2.77l-2.37-1.53c-.79-.52-1.59-1-2.34-1.62l-2.31-1.7-2.2-1.88c-.75-.61-1.42-1.34-2.13-2l-1-1-1-1.13a33.5,33.5,0,0,1-6.4-10.55,29.36,29.36,0,0,1-.93-3.11,31.47,31.47,0,0,1-.51-3.23,25.14,25.14,0,0,1,.15-6.65,30.62,30.62,0,0,1,4.83-12.07,41,41,0,0,1,3.73-4.92c1.32-1.53,2.7-3,4.11-4.31A150.63,150.63,0,0,1,826.34,702c6.08-4.21,12.19-8.21,18.27-12.14,12.16-7.88,24.15-15.68,35.66-24a391.88,391.88,0,0,0,33.1-26.54c5.23-4.74,10.3-9.64,15.14-14.76s9.61-10.47,14.18-15.89a372.78,372.78,0,0,0,25.44-34.17L971,570l2.79-4.53c1.84-3,3.65-6.09,5.36-9.19a197.25,197.25,0,0,0,9.31-19.12A132.53,132.53,0,0,0,995.21,517c.81-3.44,1.58-6.9,2.06-10.4.13-.88.28-1.75.38-2.63l.24-2.64.25-2.64c.05-.88.05-1.77.08-2.65a82,82,0,0,0-1.92-21,80.83,80.83,0,0,0-7.57-19.72L987.45,453l-.65-1.16-.72-1.11-2.9-4.44c-2.16-2.81-4.23-5.67-6.64-8.27l-1.75-2c-.61-.64-1.25-1.26-1.87-1.89-1.26-1.24-2.45-2.54-3.76-3.73l-3.94-3.54c-1.3-1.19-2.74-2.23-4.1-3.35l-2.07-1.66c-.69-.54-1.42-1-2.13-1.56l-4.29-3.1-4.43-2.9c-.74-.48-1.46-1-2.22-1.44l-2.28-1.35c-1.52-.89-3-1.82-4.54-2.7l-4.64-2.55c-.78-.42-1.53-.87-2.32-1.27l-2.36-1.19-4.71-2.41A371.47,371.47,0,0,0,886,385.21a385.35,385.35,0,0,0-41.05-11.6c-13.93-3.15-28-5.65-42.29-7.64s-28.62-3.44-43.12-4.72Z" transform="translate(-186.65 -205.43)"/></g><g id="Layer_2" data-name="Layer 2"><ellipse class="cls-7" cx="298.35" cy="70.57" rx="264.5" ry="64.5"/><path class="cls-7" d="M749.81,277.05c8.75,71.56,19.7,168.53,30,283.87,18.63,208.56,27.66,251.32-1.45,302.49-70.63,124.17-252,134-276.55,135.3-41.15,2.22-182,9.57-262-81-57.51-65.07-51.79-182.2-38-413.81,5.78-97.06,13-177.37,19-232.88" transform="translate(-186.65 -205.43)"/><path d="M218.2,276.5a19,19,0,0,1,1.62-9.23,32.36,32.36,0,0,1,5.15-7.88,52.2,52.2,0,0,1,6.72-6.42,84.55,84.55,0,0,1,7.46-5.4,168.91,168.91,0,0,1,32.7-15.66,325.25,325.25,0,0,1,34.4-10.52c5.8-1.46,11.64-2.77,17.48-4s11.71-2.31,17.58-3.36a571,571,0,0,1,71-7.58c23.75-1.07,47.5-1.15,71.21-.83s47.41,1.46,71,3.42,47.18,4.91,70.55,8.95c11.68,2.05,23.31,4.4,34.85,7.17s23,5.94,34.26,9.78,22.35,8.31,32.71,14.36a67.54,67.54,0,0,1,14.34,10.91,31.73,31.73,0,0,1,5.4,7.37,19,19,0,0,1,2.16,8.94h-1.6a17.41,17.41,0,0,0-2.36-8,29.62,29.62,0,0,0-5.36-6.58,65.19,65.19,0,0,0-14.24-9.72c-10.28-5.4-21.35-9.3-32.54-12.61s-22.64-5.92-34.14-8.16-23.08-4.06-34.7-5.59c-23.23-3.12-46.62-5.08-70-6.23s-46.88-1.58-70.32-1.24-46.85,1.71-70.14,3.83-46.51,4.52-69.61,7.6-46.08,7-68.49,12.8c-5.59,1.47-11.12,3.15-16.58,5a139.84,139.84,0,0,0-16,6.34,65.91,65.91,0,0,0-14.41,8.81,28.76,28.76,0,0,0-5.6,6.07,17.41,17.41,0,0,0-2.91,7.68Z" transform="translate(-186.65 -205.43)"/></g></svg>