<svg xmlns="http://www.w3.org/2000/svg" viewBox="0 0 453.5 732.96"><defs><style>.cls-1{fill:#fff;}.cls-1,.cls-2,.cls-3,.cls-4{stroke:#000;stroke-miterlimit:10;stroke-width:4px;}.cls-2{fill:#fa89a5;}.cls-3{fill:#39b54a;}.cls-4{fill:#fcee21;}</style></defs><g id="Layer_3" data-name="Layer 3"><path class="cls-1" d="M785.85,423a1472.7,1472.7,0,0,0-424.68,7.63,27,27,0,0,0,1,41.4,1647.24,1647.24,0,0,1,423.66-9.81c1-1,9.11-9.22,8.15-21.79A27.58,27.58,0,0,0,785.85,423Z" transform="translate(-350 -308.37)"/></g><g id="Layer_2" data-name="Layer 2"><path class="cls-2" d="M366,375c26.44-60.09,132.88-62.3,215-64,83.94-1.74,158.9-3.29,191,46,14.39,22.1,15.58,47.37,14,66a1146.57,1146.57,0,0,0-198-13c-101,2.25-221.81,18.68-225,19C359.73,415.15,357.31,394.75,366,375Z" transform="translate(-350 -308.37)"/></g><g id="Layer_4" data-name="Layer 4"><path class="cls-2" d="M360,465c-2.81,10.38-7.79,34.74,5,55s36.73,26.08,62,30c61.46,9.53,92.39,1.56,154,0,54.83-1.39,114.68,2.78,173-13,9.34-2.53,26.35-7.65,36-23,13.23-21,4.13-47.8,1-56-68.14-3-140.27-4.24-216-3C499.56,456.23,427.77,459.8,360,465Z" transform="translate(-350 -308.37)"/></g><g id="Layer_5" data-name="Layer 5"><path class="cls-1" d="M788.38,665.18a1472.7,1472.7,0,0,0-424.68,7.63,27,27,0,0,0,1,41.4,1647.24,1647.24,0,0,1,423.66-9.81c1-1,9.11-9.22,8.15-21.79A27.58,27.58,0,0,0,788.38,665.18Z" transform="translate(-350 -308.37)"/><path class="cls-3" d="M368.53,617.21c26.44-60.09,132.88-62.3,215-64,83.94-1.74,158.9-3.29,191,46,14.39,22.1,15.58,47.37,14,66a1146.57,1146.57,0,0,0-198-13c-101,2.25-221.81,18.68-225,19C362.26,657.36,359.84,637,368.53,617.21Z" transform="translate(-350 -308.37)"/><path class="cls-3" d="M362.53,707.21c-2.81,10.38-7.79,34.74,5,55s36.73,26.08,62,30c61.46,9.53,92.39,1.56,154,0,54.83-1.39,114.68,2.78,173-13,9.34-2.53,26.35-7.65,36-23,13.23-21,4.13-47.81,1-56-68.14-3-140.27-4.24-216-3C502.09,698.44,430.3,702,362.53,707.21Z" transform="translate(-350 -308.37)"/></g><g id="Layer_6" data-name="Layer 6"><path class="cls-1" d="M790.38,907.7a1472.28,1472.28,0,0,0-424.68,7.62,27,27,0,0,0,1,41.4,1646.65,1646.65,0,0,1,423.66-9.8c1-1,9.11-9.23,8.15-21.79A27.58,27.58,0,0,0,790.38,907.7Z" transform="translate(-350 -308.37)"/><path class="cls-4" d="M370.53,859.72c26.44-60.09,132.88-62.29,215-64,83.94-1.74,158.9-3.29,191,46,14.39,22.1,15.58,47.37,14,66a1148.6,1148.6,0,0,0-198-13c-101,2.25-221.81,18.69-225,19C364.26,899.87,361.84,879.48,370.53,859.72Z" transform="translate(-350 -308.37)"/><path class="cls-4" d="M364.53,949.72c-2.81,10.39-7.79,34.75,5,55s36.73,26.08,62,30c61.46,9.54,92.39,1.57,154,0,54.83-1.39,114.68,2.78,173-13,9.34-2.52,26.35-7.65,36-23,13.23-21,4.13-47.8,1-56-68.14-3-140.27-4.23-216-3C504.09,941,432.3,944.52,364.53,949.72Z" transform="translate(-350 -308.37)"/></g></svg>
