<svg xmlns="http://www.w3.org/2000/svg" viewBox="0 0 976 865.53"><defs><style>.cls-1{fill:#f7931e;}.cls-1,.cls-2,.cls-3,.cls-4,.cls-5,.cls-6,.cls-7{stroke:#000;stroke-miterlimit:10;stroke-width:2px;}.cls-2{fill:#fbb03b;}.cls-3{fill:#fffebf;}.cls-4{fill:#fffe6b;}.cls-5{fill:#fff;}.cls-6{fill:#ff4635;opacity:0.85;}.cls-7{fill:#f8c908;}</style></defs><g id="Layer_3" data-name="Layer 3"><g id="Layer_4" data-name="Layer 4"><ellipse class="cls-1" cx="488" cy="490.53" rx="487" ry="374"/></g><ellipse class="cls-2" cx="484" cy="463.03" rx="445" ry="321.5"/></g><g id="Layer_1" data-name="Layer 1"><path class="cls-3" d="M386.41,424A312.89,312.89,0,0,0,200.17,578.93c-8.61,17.58-27.41,62.05-19.1,118.82C193,779.29,251.83,824.6,264.16,833.67A861.36,861.36,0,0,0,481,921.12a514.18,514.18,0,0,0,174.77-13.31,508.47,508.47,0,0,0,98.37-36.12c18.86-4.62,102.83-27.33,142.31-104.55a181,181,0,0,0,18.14-58.94c9.69-32.65,22.8-95.77-4.77-157.78-50.69-114-200.28-137.36-270.28-148.28C590.5,394.49,499.1,387.45,386.41,424Z" transform="translate(-74 -219.47)"/></g><g id="Layer_5" data-name="Layer 5"><rect class="cls-4" x="514.57" y="241.31" width="358.73" height="654.28" rx="53.59" transform="translate(-276.19 308.5) rotate(-36.74)"/><rect class="cls-4" x="265.49" y="382.89" width="358.73" height="654.28" rx="53.59" transform="translate(-410.34 187.63) rotate(-36.74)"/><circle class="cls-5" cx="559.5" cy="87.03" r="29.5"/><circle class="cls-3" cx="672.5" cy="510.03" r="19.5"/><circle class="cls-2" cx="883.5" cy="488.03" r="19.5"/><circle class="cls-3" cx="502.22" cy="279.84" r="32.31"/></g><g id="Layer_8" data-name="Layer 8"><path class="cls-6" d="M378,794c-91.38-53.25-186.21-159.23-162-227,21.08-59,139.8-109.76,162.52-119.48,4.12-1.76,7.34-3.06,8.48-3.52,77.94-31.46,145.37-32.74,172-33,72.77-.7,138.37-1.34,193.47,36.53,94.69,65.05,134,227,73.53,324.47C744,904,508.36,870,378,794Z" transform="translate(-74 -219.47)"/></g><g id="Layer_6" data-name="Layer 6"><ellipse class="cls-5" cx="433.78" cy="666.93" rx="156.09" ry="220.13" transform="translate(-386.76 172.45) rotate(-36.74)"/><circle class="cls-7" cx="324" cy="398.53" r="94"/></g></svg>
