<svg xmlns="http://www.w3.org/2000/svg" viewBox="0 0 619.94 611.68"><defs><style>.cls-1{fill:#7c4e4c;}.cls-1,.cls-2{stroke:#000;stroke-miterlimit:10;stroke-width:2px;}.cls-2{fill:#5b4950;}</style></defs><g id="Layer_2" data-name="Layer 2"><circle class="cls-1" cx="301.21" cy="289.08" r="276"/></g><g id="Layer_3" data-name="Layer 3"><path class="cls-2" d="M482,400c12.24-22.37,10.56-47.79,3-66-4.07-9.82-8.28-19.95-18-24-21.51-9-50.67,19.88-70,39-20.74,20.52-32.1,31.75-31,48,1.4,20.69,22.13,37.24,41,42C437.79,446.77,468.63,424.43,482,400Z" transform="translate(-325.79 -238.92)"/><path class="cls-2" d="M637.82,419.23c23.25,10.46,48.46,6.79,66-2.16,9.47-4.83,19.24-9.81,22.52-19.82,7.26-22.14-23.77-49-44.34-66.74C660,311.43,647.87,301,631.75,303.35c-20.51,3-35.39,25-38.67,44.15C587.74,378.8,612.42,407.8,637.82,419.23Z" transform="translate(-325.79 -238.92)"/><path class="cls-2" d="M540.08,262.26c-15.37,11.77-22,29.95-22.35,44.91-.19,8.07-.38,16.4,5.12,22.2,12.19,12.83,41.3,1.76,60.6-5.58,20.7-7.88,32-12.19,36.27-23.82,5.38-14.79-3.93-32.66-15.58-41.76C585.15,243.36,556.87,249.4,540.08,262.26Z" transform="translate(-325.79 -238.92)"/><path class="cls-2" d="M803.46,338.6c9.16-16.74,7.9-35.76,2.24-49.38-3.05-7.35-6.19-14.93-13.47-18-16.09-6.71-37.91,14.87-52.37,29.18-15.52,15.35-24,23.75-23.19,35.91,1,15.48,16.55,27.86,30.67,31.43C770.38,373.59,793.45,356.88,803.46,338.6Z" transform="translate(-325.79 -238.92)"/><path class="cls-2" d="M851.21,720c9.35-17.07,8.06-36.47,2.29-50.37-3.11-7.5-6.32-15.23-13.74-18.32-16.41-6.85-38.67,15.17-53.43,29.77-15.83,15.66-24.5,24.23-23.66,36.63,1.06,15.8,16.89,28.43,31.29,32.06C817.46,755.69,841,738.63,851.21,720Z" transform="translate(-325.79 -238.92)"/><path class="cls-2" d="M901.8,553.83c26.26-16.89,39.34-45.21,41.87-69.23,1.37-12.94,2.78-26.3-5.3-36.35-17.88-22.23-66.14-8.29-98.12,1-34.33,9.92-53.11,15.35-61.45,33.47-10.61,23.07,2,53,19.5,69.18C826.86,578.24,873.11,572.27,901.8,553.83Z" transform="translate(-325.79 -238.92)"/><path class="cls-2" d="M736.52,607.36c17.92-.63,32.69-10.79,41-21.9,4.48-6,9.09-12.18,8-19.51-2.31-16.23-30.23-23.5-48.73-28.31-19.86-5.18-30.73-8-40.17-1.5-12,8.27-14.56,26.76-10.66,39.88C692.35,597.43,716.94,608.05,736.52,607.36Z" transform="translate(-325.79 -238.92)"/><path class="cls-2" d="M627.69,719.16c-24.54-14.94-53.25-14.37-74.14-6.81-11.27,4.08-22.89,8.29-28,19-11.21,23.74,19.75,58.07,40.27,80.83,22,24.42,34.07,37.78,52.42,37.39,23.36-.49,43.07-23,49.41-44C678,771.37,654.5,735.49,627.69,719.16Z" transform="translate(-325.79 -238.92)"/><path class="cls-2" d="M642.64,695.18c25.47,1.19,47.58-11.47,60.63-26.25,7-8,14.3-16.19,13.67-26.7-1.37-23.26-40.08-36.82-65.74-45.81-27.54-9.64-42.61-14.92-56.74-6.81-18,10.33-23.76,36.22-19.76,55.27C581.22,676,614.82,693.87,642.64,695.18Z" transform="translate(-325.79 -238.92)"/><path class="cls-2" d="M495.68,707.38c12.25-22.36,10.56-47.79,3-66-4.07-9.82-8.27-19.94-18-24-21.5-9-50.66,19.88-70,39-20.74,20.52-32.09,31.75-31,48,1.4,20.69,22.13,37.24,41,42C451.47,754.15,482.31,731.81,495.68,707.38Z" transform="translate(-325.79 -238.92)"/><path class="cls-2" d="M409.68,483.73c-16.08-15.16-37.78-19.31-54.71-17-9.13,1.27-18.55,2.59-24.07,9.86-12.23,16.08,5.59,46.85,17.41,67.25,12.67,21.89,19.61,33.87,33.49,36.51,17.66,3.35,36.08-10.42,44.2-25.21C439.25,531.06,427.26,500.3,409.68,483.73Z" transform="translate(-325.79 -238.92)"/><path class="cls-2" d="M593,503.72c13.65-24.94,11.77-53.29,3.34-73.6-4.54-10.95-9.23-22.24-20.07-26.76-24-10-56.49,22.17-78,43.49-23.13,22.88-35.79,35.4-34.57,53.52,1.56,23.07,24.68,41.52,45.72,46.83C543.74,555.87,578.13,531,593,503.72Z" transform="translate(-325.79 -238.92)"/><path class="cls-2" d="M851.58,415.32c8-9.57,9.59-21.92,7.69-31.38-1-5.1-2.08-10.35-6.36-13.22-9.47-6.34-26.19,4.74-37.28,12.08-11.9,7.88-18.41,12.19-19.42,20.09-1.29,10.06,7.09,20,15.69,24C825.93,433.57,842.85,425.78,851.58,415.32Z" transform="translate(-325.79 -238.92)"/><path class="cls-2" d="M654.77,505.07c12.46-.44,22.73-7.5,28.5-15.23,3.11-4.17,6.32-8.47,5.59-13.56-1.6-11.29-21-16.34-33.88-19.69-13.81-3.6-21.37-5.57-27.93-1-8.35,5.75-10.12,18.6-7.41,27.73C624.06,498.16,641.16,505.55,654.77,505.07Z" transform="translate(-325.79 -238.92)"/><path class="cls-2" d="M724.85,459.26C720,470.73,722,483,726.52,491.53c2.45,4.58,5,9.32,9.9,10.83,10.89,3.34,23.72-12.08,32.22-22.31,9.12-11,14.12-17,12.81-24.83-1.66-10-12.54-17.08-22-18.5C744.15,434.4,730.2,446.74,724.85,459.26Z" transform="translate(-325.79 -238.92)"/><path class="cls-2" d="M839.77,642.07c12.46-.44,22.73-7.5,28.5-15.23,3.11-4.17,6.32-8.47,5.59-13.56-1.6-11.29-21-16.34-33.88-19.69-13.81-3.6-21.37-5.57-27.93-1-8.35,5.75-10.12,18.6-7.41,27.73C809.06,635.16,826.16,642.55,839.77,642.07Z" transform="translate(-325.79 -238.92)"/><path class="cls-2" d="M724.77,774.07c12.46-.44,22.73-7.5,28.5-15.23,3.11-4.17,6.32-8.47,5.59-13.56-1.6-11.29-21-16.34-33.88-19.69-13.81-3.6-21.37-5.57-27.93-1-8.35,5.75-10.12,18.6-7.41,27.73C694.06,767.16,711.16,774.55,724.77,774.07Z" transform="translate(-325.79 -238.92)"/><path class="cls-2" d="M478.77,596.07c12.46-.44,22.73-7.5,28.5-15.23,3.11-4.17,6.32-8.47,5.59-13.56-1.6-11.29-21-16.34-33.88-19.69-13.81-3.6-21.37-5.57-27.93-1-8.35,5.75-10.12,18.6-7.41,27.73C448.06,589.16,465.16,596.55,478.77,596.07Z" transform="translate(-325.79 -238.92)"/><path class="cls-2" d="M779.59,660.88c3.14-12.07-.7-23.93-6.46-31.66-3.11-4.17-6.31-8.47-11.4-9.23-11.27-1.68-21.66,15.48-28.54,26.86-7.39,12.21-11.43,18.89-9,26.46,3.14,9.65,14.95,15,24.46,15C764.21,688.34,776.17,674.06,779.59,660.88Z" transform="translate(-325.79 -238.92)"/><path class="cls-2" d="M541.82,564.87c-8,9.59-9.55,22-7.63,31.4,1,5.09,2.1,10.35,6.39,13.21,9.48,6.31,26.18-4.8,37.26-12.16,11.87-7.91,18.38-12.23,19.37-20.14,1.27-10.06-7.13-19.94-15.74-24C567.42,546.57,550.52,554.4,541.82,564.87Z" transform="translate(-325.79 -238.92)"/><path class="cls-2" d="M553.77,702.07c12.46-.44,22.73-7.5,28.5-15.23,3.11-4.17,6.32-8.47,5.59-13.56-1.6-11.29-21-16.34-33.88-19.69-13.81-3.6-21.37-5.57-27.93-1-8.35,5.75-10.12,18.6-7.41,27.73C523.06,695.16,540.16,702.55,553.77,702.07Z" transform="translate(-325.79 -238.92)"/><path class="cls-2" d="M689.77,292.07c12.46-.44,22.73-7.5,28.5-15.23,3.11-4.17,6.32-8.47,5.59-13.56-1.6-11.29-21-16.34-33.88-19.69-13.81-3.6-21.37-5.57-27.93-1-8.35,5.75-10.12,18.6-7.41,27.73C659.06,285.16,676.16,292.55,689.77,292.07Z" transform="translate(-325.79 -238.92)"/><path class="cls-2" d="M560,394.06c10.25-7.1,15.08-18.59,15.76-28.21.36-5.18.74-10.53-2.62-14.43-7.45-8.63-26.51-2.4-39.15,1.73-13.57,4.43-21,6.86-24.07,14.21-3.91,9.35,1.53,21.13,8.74,27.34C530.39,404.84,548.77,401.82,560,394.06Z" transform="translate(-325.79 -238.92)"/><path class="cls-2" d="M664.35,560.84c8.55-9.09,10.87-21.33,9.53-30.88-.72-5.15-1.47-10.46-5.57-13.57-9.08-6.89-26.43,3.19-37.93,9.86-12.34,7.17-19.09,11.09-20.57,18.92-1.88,10,5.9,20.35,14.25,24.92C637.68,577.55,655,570.76,664.35,560.84Z" transform="translate(-325.79 -238.92)"/></g></svg>
