<svg xmlns="http://www.w3.org/2000/svg" viewBox="0 0 563.29 558.42"><defs><style>.cls-1{fill:#8b5a3c;}.cls-1,.cls-2,.cls-4{stroke:#000;stroke-miterlimit:10;stroke-width:3px;}.cls-2,.cls-3{fill:#8c6239;}.cls-4{fill:#662d91;}</style></defs><g id="Layer_2" data-name="Layer 2"><path class="cls-1" d="M499,391c-36.84-.81-55.27-1.21-75,8-26.56,12.4-22.9,25.31-57,43-24.9,12.92-36.25,10.91-44,24-10.33,17.44,3.78,31.22-7,48-9.76,15.18-24.31,8.58-40,26-1.26,1.39-18.67,21.3-14,44,1.19,5.78,4.85,16.82,28,34a198.39,198.39,0,0,0,70,33c37.61,8.84,58.69,5.79,120,5,78.24-1,68.31,3.64,113,1,36.12-2.13,81.24-7.46,132-23,67.64-20.71,78.28-39,82-48,8-19.14,2.1-38.31-3-55-13.57-44.42-47.22-69.36-62-80-22.55-16.23-42.33-23-66-31-25.6-8.7-50.08-12.58-98-20C541.52,394.36,522.8,391.52,499,391Z" transform="translate(-250.88 -389.11)"/></g><g id="Layer_3" data-name="Layer 3"><path class="cls-2" d="M725,878c-21.64,22.88-45,33.73-65,43-51.76,24-97.08,24.76-140,25-46,.26-95.45,0-147-28-15.72-8.53-29.92-16.22-44-32-23.82-26.68-20.67-46.61-41-128-7.54-30.18-14.72-54.46-26-105s-11.76-60.59-6-65c15.75-12.07,54.31,37,125,59,29.49,9.16,59,8.44,118,7,114-2.78,237.94-5.8,293-66,4.26-4.65,13.17-15.19,18-13,9.51,4.3-7.76,52.78-29,137C753.78,819.94,755.56,845.7,725,878Z" transform="translate(-250.88 -389.11)"/><path class="cls-3" d="M885,593" transform="translate(-250.88 -389.11)"/></g><g id="Layer_4" data-name="Layer 4"><path class="cls-4" d="M508.5,451.5a31.23,31.23,0,0,0-6.12,1.72c-16.49,6.46-33.66,11.17-49.88,18.28-53.79,23.59-62.43,16.79-76,32-18,20.23-24.32,56.42-10,70,18.6,17.63,72.19-2.68,79-28,2.41-9-2-15,3-21,2.1-2.52,8-7.62,46-3,26.64,3.24,33.6,7.11,39,2,4.69-4.44,3.8-15.63,2-38-2-25.47-5.37-29.91-9-32C521.94,450.88,514.32,450.49,508.5,451.5Z" transform="translate(-250.88 -389.11)"/><path class="cls-4" d="M622.5,429.5c-3,4.54,2.85,13.29,6,18,17.48,26.14,44.83,24.94,47,39,1.6,10.36-13.17,11.62-19,31-5.54,18.41,5.47,25,0,47-3.82,15.36-11,19.53-8,27,4.13,10.29,21.69,12.13,30,13,9.49,1,28.66,3,42-9,2.3-2.07,6.33-6.26,15-40,6.13-23.83,9.15-35.89,7-43-3.77-12.5-11.57-12.46-34-35-21-21.1-18.33-25.31-32-35C655.6,427.68,627.47,422,622.5,429.5Z" transform="translate(-250.88 -389.11)"/><path class="cls-4" d="M620.5,691.5c-11.74,3.3-10.54,16.59-22,30-10.25,12-25.5,16.33-56,25-9.37,2.66-17.55,4.94-29,6-13.26,1.22-15.49-.62-36-1-19.85-.37-31.07-.48-45,4a74.78,74.78,0,0,0-21,10c-5.39,3.76-20.87,14.87-26,35-1.56,6.13-3.76,14.73,0,24,5.78,14.26,23.32,24.38,33,20,8.86-4,2.81-16.41,14-31,13.52-17.63,38.42-20.48,43-21,9.13-1,8.7.84,20,0,16.7-1.23,27.22-6,41-11,22.28-8,19.17-4.2,46-13,42.37-13.9,56.17-25.38,63-32s17.73-17.18,15-27c-2.69-9.66-17.4-14.25-23-16C631.26,691.55,626.07,689.94,620.5,691.5Z" transform="translate(-250.88 -389.11)"/></g></svg>
