<svg id="Layer_1" data-name="Layer 1" xmlns="http://www.w3.org/2000/svg" viewBox="0 0 390 530">
  <defs>
    <style>
      .cls-1, .cls-7 {
        fill: #fff;
      }

      .cls-2 {
        fill: #ff7bac;
      }

      .cls-3 {
        fill: #ff5a8f;
      }

      .cls-4 {
        fill: #666;
      }

      .cls-5 {
        fill: #ccc;
      }

      .cls-6 {
        fill: none;
      }

      .cls-6, .cls-7 {
        stroke: #666;
        stroke-miterlimit: 10;
        stroke-width: 2px;
      }

      .cls-8 {
        fill: gray;
      }

      .cls-9 {
        fill: #333;
      }
    </style>
  </defs>
  <path d="M46.81,54.16V423.47s-3.47,36.79,22.56,40.26,166.22,0,166.22,0S261.15,466.34,262,436c1-34.73,0-125.32,0-125.32l.77-166.26V54.16s1-26-23.33-29.51-166.13,0-166.13,0S46.81,29.86,46.81,54.16Z"/>
  <path class="cls-1" d="M58.09,152.21V433.08q0,.57,0,1.14c-.14,3.12-.25,20,13.92,20H234.54s16.19,0,17.93-17.36,0-318.26,0-318.26V98.75a21.42,21.42,0,0,0-3-11.15,19.87,19.87,0,0,0-17.79-10H85.2a23.21,23.21,0,0,1-2.88-.19C77.17,76.74,58,75.53,58,94.2,58.09,115.77,58.09,152.21,58.09,152.21Z"/>
  <polygon class="cls-2" points="54.62 65.44 251.78 65.44 299.33 133.12 10.3 133.12 54.62 65.44"/>
  <path class="cls-2" d="M11.24,133.12H52.89s-3.47,21.81-20.83,22.18S11.24,140.06,11.24,133.12Z"/>
  <path class="cls-2" d="M269.82,133.12h29.51S304.53,154,283.71,154C266.35,154,268.09,140.06,269.82,133.12Z"/>
  <path class="cls-3" d="M52.89,133.12H96.27S94.54,154,73.71,154s-20.82-20.18-20.82-20.18"/>
  <path class="cls-2" d="M96.27,133.12h43.39S137.93,154,117.1,154s-20.83-20.18-20.83-20.18"/>
  <path class="cls-3" d="M139.66,133.12h43.39S181.31,154,160.49,154s-20.83-20.18-20.83-20.18"/>
  <path class="cls-2" d="M183.05,133.12h43.39S224.7,154,203.87,154s-20.82-20.18-20.82-20.18"/>
  <path class="cls-3" d="M226.44,133.12h43.38S268.09,154,247.26,154s-20.82-20.18-20.82-20.18"/>
  <polygon class="cls-3" points="73.71 65.44 52.07 133.12 9.5 133.12 54.62 65.44 73.71 65.44"/>
  <polygon class="cls-3" points="96.27 133.85 139.66 133.85 133.66 65.44 101.48 65.44 96.27 133.85"/>
  <polygon class="cls-3" points="226.44 133.12 183.05 133.12 172.64 65.44 210.82 65.44 226.44 133.12"/>
  <polygon class="cls-3" points="299.33 133.12 269.82 133.12 235.11 65.44 252.47 65.44 299.33 133.12"/>
  <rect class="cls-1" x="117.1" y="42.88" width="85.04" height="8.68" rx="1.76"/>
  <g>
    <path class="cls-4" d="M109,195.07c-4.21-5-12.62-4.21-16.83-3.37s-10.1,5.89-9.18,11.78,5,5.89,6.65,4.21.85-3.37,0-5.05l-1.68-3.37c-.84-1.68.84-3.36.84-3.36s.84-1.68,5-2.53a7.67,7.67,0,0,1,6.73,1.69s3.37,2.52,4.21,5.89-.84,8.41-.84,8.41l-4.21,9.26s-1.68,4.21-2.52,5.89S96,230.25,96,230.25l.11,3.53H98v-3.37a11.68,11.68,0,0,1,1.68-5.89s2.53-3.36,6.74-8.41,5.89-10.1,5.89-10.94S113.16,200.12,109,195.07Z"/>
    <circle class="cls-4" cx="97.17" cy="243.04" r="4.63"/>
  </g>
  <rect class="cls-5" x="130.98" y="197.33" width="91.98" height="8.68"/>
  <rect class="cls-5" x="130.98" y="211.22" width="91.98" height="8.68"/>
  <rect class="cls-5" x="130.98" y="225.1" width="91.98" height="8.68"/>
  <rect class="cls-5" x="130.98" y="240.72" width="91.98" height="8.68"/>
  <path class="cls-2" d="M379.16,378.69h-4.32l0,.33H329v7.53h1.41l-.15,1.34-1.92,0-.65,6.55,1.8,0-.18,1.55-1.62,0-.66,6.3,1.55.06-.23,2-2.46-.07-.82,6.55,2.51.1-2.84,24.46L323,440.76l-2.22-.18-30.12,3.92v4.1l3.91.42,16.13,24.89-8.25,18.4-7.21,18.33,7.86-2c-.76-.84,4.81-14.17,11.13-29.32L326,497.55l5.89-1.31-15.1-23.05c3-7.22,6-14.53,8.46-20.84L340.11,454l1.29-.31L354.13,475,345,499.51l-7.3,19h2.72a12.92,12.92,0,0,0,4.58-1.31s6.38-17.24,12.84-35.94l14,23.5,5.24-2-16.41-29.84c3.22-9.53,6.21-18.83,8.17-25.86h0c.39-1.39.74-2.69,1-3.89,2-8.06,3.86-19.47,5.36-30.45h.21l.47-5.16c.15-1.14.29-2.26.43-3.36h.41l.65-7.2h-.2l.18-1.53h.68v-6.13c.11-1,.21-1.94.3-2.82h.35l.44-7.53h0Zm-62.32,81.53L313.37,468l-11.93-18.19,18.08,2Zm32.21-8.45,13.55-3.33-3.19,12.43-2.17,5.81ZM366,435.34l-2.24,8.74-34.47-2.81c2.47-8.22,4-19.46,5-30.13l35.3,1.37Zm4.7-29.94-35.88-.94c0-.63.08-1.26.13-1.88l36,1.42Zm1.33-8.49-36.7-.78c0-.53.05-1,.08-1.55l36.86.79Zm1.33-8.46L335.63,388c0-.49,0-.95,0-1.41h37.94Z"/>
  <path class="cls-2" d="M150.11,373.81h0l.44,7.53h.35c.1.89.2,1.83.3,2.83v6.12h.68l.18,1.54h-.2l.65,7.21.42,0q.21,1.67.42,3.36l.47,5.17H154c1.5,11,3.33,22.39,5.35,30.46.3,1.19.65,2.5,1,3.88h0c2,7,5,16.33,8.17,25.85l-16.4,29.85,5.24,2,14-23.5c6.46,18.71,12.84,35.94,12.84,35.94a12.92,12.92,0,0,0,4.59,1.31h2.71l-7.3-19-9.13-24.49,12.74-21.37,1.28.32L204,447.15c2.44,6.3,5.45,13.61,8.46,20.84l-15.11,23,5.89,1.31L215,474.15c6.33,15.15,11.9,28.48,11.13,29.32l7.86,2-7.2-18.34-8.26-18.39,16.13-24.9,3.91-.42V439.3l-30.12-3.93-2.22.18-1.71-5.42-2.84-24.46,2.52-.1-.83-6.54-2.46.06-.22-2,1.54-.06-.65-6.3-1.63,0-.18-1.56,1.81,0-.66-6.55-1.91,0-.16-1.34h1.42v-7.53H154.45l0-.32h-4.33S150.09,373.6,150.11,373.81Zm59.6,72.71,18.09-2-11.93,18.2L212.39,455Zm-37.72,15-2.16-5.8-3.19-12.44,13.54,3.33ZM159.7,407.31,195,405.93c1,10.67,2.51,21.91,5,30.13l-34.47,2.82-2.24-8.75Zm-1.34-8.52,36-1.42c0,.63.08,1.25.13,1.89l-35.89.93ZM157,390.17l36.87-.8c0,.51.05,1,.08,1.56l-36.71.78Zm-1.38-8.83h37.93c0,.46,0,.93.05,1.41l-37.68.5Z"/>
  <path class="cls-6" d="M93.51,354.57h53.8s6.24,0,6.24-5.07V323.28l-31.29,16.07L90.13,323.28v25.58S89.28,354.57,93.51,354.57Z"/>
  <path class="cls-6" d="M90.13,323.28l23.67-22s8.46-5.92,15.22,0c6.42,5.61,24.53,22,24.53,22"/>
  <path class="cls-7" d="M90.52,352.61l24.13-21.72s6.93-5.92,13.19,0S152,352.61,152,352.61"/>
  <path class="cls-8" d="M176,285.53s7.13-2.48,9.24,3.9-5.4,10-6.91,10.68-8.44,2.64-8.44,2.64l-.55-.2-4.18-5.86s-2.9-4.15-2.83-7.88,2.56-7.22,5.73-7.35,5.75,1.42,6.47,2.92l.72,1.51Z"/>
  <path class="cls-9" d="M320.15,415.14c0-13.9-22.92-25.17-51.19-25.17s-51.2,11.27-51.2,25.17c0,13.47,21.53,24.46,48.59,25.13v60.78H255.07a7.81,7.81,0,1,0,0,15.61h29.5a7.81,7.81,0,1,0,0-15.61H273.29V440.21C299.54,439.12,320.15,428.32,320.15,415.14Z"/>
  <circle class="cls-1" cx="97.5" cy="47.5" r="5"/>
</svg>
