<svg xmlns="http://www.w3.org/2000/svg" xmlns:xlink="http://www.w3.org/1999/xlink" width="60" height="100" viewBox="0 0 60 100">
  <defs>
    <clipPath id="clip-Point_">
      <rect width="60" height="100"/>
    </clipPath>
  </defs>
  <g id="Point_" data-name="Point " clip-path="url(#clip-Point_)">
    <rect width="60" height="100" fill="#fff"/>
    <path id="Subtraction_3" data-name="Subtraction 3" d="M27.5,94h0L4.191,42.536H4.4A27.607,27.607,0,0,1,16.8,2.167,27.52,27.52,0,0,1,55,27.57a27.519,27.519,0,0,1-4.4,14.967h.21L27.5,94Zm0-82.447a14.063,14.063,0,0,0-5.607,1.156,14.344,14.344,0,0,0-4.579,3.151,14.676,14.676,0,0,0-3.087,4.674,15.036,15.036,0,0,0,0,11.447,14.676,14.676,0,0,0,3.087,4.674,14.344,14.344,0,0,0,4.579,3.151,14.181,14.181,0,0,0,11.214,0,14.344,14.344,0,0,0,4.579-3.151,14.675,14.675,0,0,0,3.087-4.674,15.035,15.035,0,0,0,0-11.447,14.675,14.675,0,0,0-3.087-4.674,14.344,14.344,0,0,0-4.579-3.151A14.064,14.064,0,0,0,27.5,11.553Z" transform="translate(3 3)" fill="#bcede2"/>
  </g>
</svg>
