<?xml version="1.0" standalone="no"?>
<!DOCTYPE svg PUBLIC "-//W3C//DTD SVG 20010904//EN"
 "http://www.w3.org/TR/2001/REC-SVG-20010904/DTD/svg10.dtd">
<svg version="1.0" xmlns="http://www.w3.org/2000/svg"
 width="514.000000pt" height="514.000000pt" viewBox="0 0 514.000000 514.000000"
 preserveAspectRatio="xMidYMid meet">
<metadata>
Created by potrace 1.11, written by Peter Selinger 2001-2013
</metadata>
<g transform="translate(0.000000,514.000000) scale(0.100000,-0.100000)"
fill="#000000" stroke="none">
<path d="M2660 5016 c-14 -6 -31 -16 -38 -23 -18 -18 -51 -19 -127 -8 -31 5
-53 1 -95 -18 -51 -23 -156 -49 -240 -61 -158 -23 -329 -72 -420 -123 -93 -52
-223 -164 -203 -176 11 -7 97 24 153 55 58 31 99 29 214 -11 70 -25 74 -23
172 69 103 97 157 112 379 100 28 -1 59 0 70 3 72 22 97 24 152 13 32 -7 112
-12 178 -11 66 1 135 -2 155 -6 19 -4 55 -11 80 -14 102 -15 288 -93 380 -160
25 -18 72 -62 105 -97 33 -35 89 -86 125 -113 95 -73 102 -81 114 -145 4 -25
16 -41 41 -57 19 -13 38 -23 42 -23 5 -1 37 -37 73 -81 84 -103 118 -134 166
-149 121 -39 130 -44 194 -109 112 -113 222 -312 221 -400 0 -20 -1 -51 -1
-69 -1 -19 7 -46 17 -60 14 -21 18 -50 20 -132 1 -84 9 -134 39 -250 32 -128
37 -161 38 -275 1 -79 6 -138 13 -151 11 -19 10 -57 -1 -90 -2 -6 6 -23 20
-39 21 -24 22 -29 8 -43 -10 -9 -13 -23 -9 -36 28 -89 25 -138 -14 -278 -18
-66 -30 -137 -32 -185 -2 -43 -6 -85 -10 -93 -47 -102 -79 -164 -108 -210 -19
-30 -34 -61 -34 -67 0 -7 -4 -13 -8 -13 -5 0 -18 -17 -29 -38 -50 -90 -55 -97
-87 -136 -7 -8 -13 -20 -13 -26 0 -5 -4 -10 -10 -10 -5 0 -10 -5 -10 -11 0 -6
-7 -17 -15 -26 -8 -8 -12 -19 -9 -25 4 -6 3 -8 -3 -5 -5 3 -28 -15 -50 -41
-22 -26 -68 -74 -101 -106 -34 -33 -59 -63 -56 -68 3 -4 -2 -5 -10 -2 -11 4
-16 0 -16 -11 0 -9 -4 -14 -8 -11 -9 5 -39 -21 -84 -72 -15 -17 -46 -44 -68
-58 -22 -15 -40 -31 -40 -36 0 -5 -4 -6 -10 -3 -5 3 -10 1 -10 -5 0 -6 -6 -18
-12 -25 -31 -35 -36 -43 -30 -51 4 -4 2 -4 -4 -1 -7 4 -18 0 -25 -9 -7 -8 -32
-26 -55 -40 -31 -18 -41 -30 -38 -42 5 -13 4 -14 -4 -3 -8 11 -15 10 -40 -5
-17 -10 -28 -22 -25 -28 4 -6 -1 -5 -10 3 -14 11 -18 11 -23 -3 -3 -9 -10 -14
-14 -11 -5 3 -11 1 -15 -5 -3 -5 -15 -10 -26 -10 -10 0 -19 -5 -19 -12 0 -6
-3 -8 -7 -5 -3 4 -16 1 -27 -7 -12 -7 -36 -17 -54 -21 -19 -4 -30 -11 -26 -17
4 -7 2 -8 -4 -4 -6 4 -27 0 -47 -8 -19 -8 -35 -12 -35 -9 0 3 -7 -1 -17 -8 -9
-8 -18 -13 -19 -12 -4 3 -5 2 -84 -20 -30 -9 -66 -18 -80 -21 -14 -3 -45 -11
-70 -17 -25 -6 -54 -13 -65 -15 -11 -1 -31 -5 -45 -9 -60 -13 -168 -27 -235
-29 -22 -1 -45 -4 -50 -7 -13 -7 -137 -4 -191 5 -23 4 -61 9 -85 11 -24 2 -65
9 -91 16 -39 9 -51 8 -69 -5 -20 -14 -25 -13 -60 5 -50 25 -84 24 -103 -3 -21
-29 -13 -37 98 -92 102 -51 116 -53 386 -60 101 -3 134 -8 170 -25 25 -11 56
-21 69 -21 25 0 103 20 111 30 3 3 19 6 35 6 17 1 62 5 100 9 39 4 76 7 83 8
6 0 12 4 12 9 0 5 4 7 8 4 5 -3 20 6 35 20 28 26 54 28 72 7 8 -10 17 -9 41 3
32 16 79 85 66 99 -4 5 -2 5 4 2 12 -7 146 32 140 41 -2 4 6 8 19 8 17 1 23
-3 20 -16 -2 -13 3 -18 21 -18 13 0 27 5 30 9 3 5 10 7 15 4 5 -4 9 -1 9 5 0
6 5 8 12 4 7 -5 9 -2 6 7 -4 10 3 14 21 15 24 1 141 69 149 87 2 4 8 5 13 1 5
-3 12 2 15 10 3 9 10 13 15 10 5 -3 9 0 9 5 0 6 7 11 15 11 7 0 19 8 24 18 6
9 11 13 11 9 0 -5 13 2 30 16 16 14 35 27 42 29 10 4 10 9 -2 24 -14 18 -14
18 3 5 14 -11 20 -11 32 -1 12 10 13 16 3 29 -12 14 -11 14 5 2 15 -12 20 -11
40 6 12 11 35 31 51 44 95 78 206 185 206 199 0 5 4 9 8 7 9 -2 112 103 112
115 0 4 9 15 19 25 16 15 37 41 118 148 29 38 73 104 73 110 0 3 6 12 13 19
16 17 37 48 62 91 11 18 39 65 63 103 23 39 42 75 42 80 0 6 3 12 7 14 11 4
43 67 43 84 0 8 4 14 10 14 5 0 9 3 8 8 -1 4 6 32 15 62 10 30 20 78 23 105 8
74 23 187 28 210 53 235 69 422 52 620 -14 160 -18 200 -21 205 -2 3 -6 26 -9
51 -5 38 -28 153 -41 199 -2 8 -11 42 -20 74 -57 214 -169 470 -290 666 -119
191 -341 428 -500 535 -104 69 -200 140 -336 246 -113 89 -159 110 -237 107
-41 -1 -82 7 -147 29 -49 17 -108 34 -130 37 -22 2 -58 10 -80 16 -80 22 -111
28 -179 35 -81 8 -206 38 -250 61 -41 21 -65 24 -96 10z m1585 -4116 c3 -5 1
-10 -4 -10 -6 0 -11 5 -11 10 0 6 2 10 4 10 3 0 8 -4 11 -10z m-717 -445 c-3
-3 -9 2 -12 12 -6 14 -5 15 5 6 7 -7 10 -15 7 -18z"/>
<path d="M1338 4539 c-10 -5 -18 -7 -18 -4 0 14 -122 -59 -175 -105 -271 -236
-361 -329 -433 -441 -23 -36 -42 -68 -42 -71 0 -11 -103 -183 -114 -190 -6 -4
-8 -8 -3 -8 6 0 -106 -174 -123 -190 -12 -11 -60 -106 -90 -175 -11 -27 -49
-154 -54 -185 -3 -14 -8 -36 -11 -50 -10 -45 -19 -114 -19 -152 -1 -21 -4 -38
-7 -38 -4 0 -7 -24 -7 -54 1 -29 -2 -58 -6 -65 -4 -6 -1 -11 6 -11 8 0 9 -3 3
-8 -13 -9 -15 -33 -14 -197 0 -116 4 -190 9 -190 1 0 3 -27 5 -60 4 -87 13
-146 41 -270 14 -60 27 -117 29 -126 17 -75 82 -234 139 -339 14 -25 30 -67
36 -95 13 -59 64 -170 83 -182 8 -4 38 -42 67 -83 84 -116 132 -174 191 -226
50 -45 153 -148 269 -270 28 -29 76 -65 116 -85 38 -19 89 -55 114 -80 28 -29
60 -50 87 -57 24 -7 52 -25 67 -42 27 -33 37 -36 66 -18 18 12 24 8 58 -29 20
-22 51 -45 67 -50 42 -13 96 -5 119 17 20 19 20 20 -4 45 -13 14 -85 61 -158
103 -194 112 -194 111 -289 179 -166 117 -324 260 -460 415 -18 21 -33 42 -33
47 0 5 -4 11 -9 13 -28 11 -171 261 -202 355 -6 20 -23 62 -38 92 -14 31 -26
58 -26 61 -1 3 -25 52 -53 109 -63 125 -83 196 -88 316 -2 50 -6 122 -8 161
-2 39 -6 75 -9 80 -3 5 -8 32 -11 59 -4 28 -9 64 -11 80 -10 60 -13 291 -4
345 5 30 20 89 34 130 35 103 36 107 40 175 7 97 27 155 66 191 10 9 19 23 19
31 0 7 4 13 8 13 22 0 90 238 73 256 -3 4 0 4 7 0 7 -4 12 -1 12 8 0 8 27 38
59 66 51 44 61 59 71 103 7 29 19 63 28 77 20 31 81 88 105 96 9 3 17 10 17
15 0 5 5 9 11 9 22 0 90 65 109 106 24 48 35 59 70 68 36 10 110 48 110 56 0
4 9 17 20 30 17 20 25 44 18 53 -3 3 56 81 80 105 21 23 62 79 62 85 0 11 -53
8 -72 -4z"/>
</g>
</svg>
